<svg xmlns="http://www.w3.org/2000/svg" viewBox="0 0 200 200" width="200" height="200">
  <g fill="#86105f">
    <path d="M100,30 C90,15 70,25 85,45 L100,60 L115,45 C130,25 110,15 100,30 Z"/>
    
    <path d="M100,165 C40,110 10,60 45,25 C60,10 75,20 80,35 C65,40 45,65 60,105 C70,130 85,150 100,165 Z"/>
    
    <path d="M100,165 C160,110 190,60 155,25 C140,10 125,20 120,35 C135,40 155,65 140,105 C130,130 115,150 100,165 Z"/>
    
    <path d="M60,80 C45,70 35,60 35,60 C35,60 50,115 95,150 L100,155 L100,135 C75,110 65,95 60,80 Z"/>
    
    <path d="M140,70 C155,60 165,50 165,50 C165,50 150,115 105,150 L100,155 L100,135 C125,110 135,95 140,70 Z"/>

    <circle cx="65" cy="55" r="12"/>
    
    <circle cx="135" cy="45" r="14"/>

    <path d="M85,170 C110,195 140,185 160,165 C140,180 115,185 95,165 Z"/>
    <path d="M100,185 C120,205 150,195 170,175 C150,190 125,195 110,175 Z"/>
  </g>
</svg>